<svg width="400.95" height="260.35" viewBox="0 0 400.95 260.35" xmlns="http://www.w3.org/2000/svg"><path fill="#df65c8" d="M94.45 181.05l116.3 167.15L.1 162.8h81.6l12.75 18.25"/><path fill="none" d="M94.45 181.05l116.3 167.15L.1 162.8h81.6l12.75 18.25"/><path fill="#df65c8" d="M51.6 93.15l279.55-4.3 68.8 75.7L0 162.85l51.6-69.7"/><path fill="none" d="M51.6 93.15l279.55-4.3 68.8 75.7L0 162.85l51.6-69.7"/><path fill="#df65c8" d="M322.15 192.6l22.75-28.25 55.05.2L215.9 324.5l106.25-131.9"/><path fill="none" d="M322.15 192.6L215.9 324.5l184.05-159.95-55.05-.2-22.75 28.25"/><path fill="#432143" d="M344.8 164.25l55.15.3-77.75 28 22.6-28.3"/><path fill="none" d="M344.8 164.25l55.15.3-77.75 28 22.6-28.3"/><path fill="#eec0fe" d="M.05 162.8l51.55-70L313.25 89 71 117 .05 162.8"/><path fill="none" d="M.05 162.8l51.55-70L313.25 89 71 117 .05 162.8"/><path fill="#eec0fe" d="M169.4 293.95l40.45 53.7-137.8-121.4 97.35 67.7"/><path fill="none" d="M169.4 293.95l-97.35-67.7 137.8 121.4-40.45-53.7"/><path fill="#eec0fe" d="M306.75 245.55l-90.2 78.7 55.25-60.1 34.95-18.6"/><path fill="none" d="M306.75 245.55l-90.2 78.7 55.25-60.1 34.95-18.6"/><path fill="#432143" d="M82 163.15l12.8 18.35L.1 162.8l81.9.35"/><path fill="none" d="M82 163.15l12.8 18.35L.1 162.8l81.9.35"/></svg>